<svg width="136" height="32" viewBox="0 0 574 103" fill="none" xmlns="http://www.w3.org/2000/svg">
<path d="M18.752 40.456C21.056 37.0427 24.2133 34.2693 28.224 32.136C32.32 30.0027 36.9707 28.936 42.176 28.936C48.2347 28.936 53.696 30.4293 58.56 33.416C63.5093 36.4027 67.392 40.6693 70.208 46.216C73.1093 51.6773 74.56 58.0347 74.56 65.288C74.56 72.5413 73.1093 78.984 70.208 84.616C67.392 90.1627 63.5093 94.472 58.56 97.544C53.696 100.616 48.2347 102.152 42.176 102.152C36.8853 102.152 32.2347 101.128 28.224 99.08C24.2987 96.9467 21.1413 94.216 18.752 90.888V101H0.832001V6.28H18.752V40.456ZM56.256 65.288C56.256 61.0213 55.36 57.352 53.568 54.28C51.8613 51.1227 49.5573 48.7333 46.656 47.112C43.84 45.4907 40.768 44.68 37.44 44.68C34.1973 44.68 31.1253 45.5333 28.224 47.24C25.408 48.8613 23.104 51.2507 21.312 54.408C19.6053 57.5653 18.752 61.2773 18.752 65.544C18.752 69.8107 19.6053 73.5227 21.312 76.68C23.104 79.8373 25.408 82.2693 28.224 83.976C31.1253 85.5973 34.1973 86.408 37.44 86.408C40.768 86.408 43.84 85.5547 46.656 83.848C49.5573 82.1413 51.8613 79.7093 53.568 76.552C55.36 73.3947 56.256 69.64 56.256 65.288ZM96.67 21.64C93.5127 21.64 90.8673 20.6587 88.734 18.696C86.686 16.648 85.662 14.1307 85.662 11.144C85.662 8.15733 86.686 5.68266 88.734 3.71999C90.8673 1.67199 93.5127 0.647995 96.67 0.647995C99.8273 0.647995 102.43 1.67199 104.478 3.71999C106.611 5.68266 107.678 8.15733 107.678 11.144C107.678 14.1307 106.611 16.648 104.478 18.696C102.43 20.6587 99.8273 21.64 96.67 21.64ZM105.502 30.088V101H87.582V30.088H105.502ZM165.191 101L141.127 70.792V101H123.207V6.28H141.127V60.168L164.935 30.088H188.231L156.999 65.672L188.487 101H165.191ZM263.877 64.008C263.877 66.568 263.706 68.872 263.365 70.92H211.525C211.952 76.04 213.744 80.0507 216.901 82.952C220.058 85.8533 223.941 87.304 228.549 87.304C235.205 87.304 239.941 84.4453 242.757 78.728H262.085C260.037 85.5547 256.112 91.1867 250.309 95.624C244.506 99.976 237.381 102.152 228.933 102.152C222.106 102.152 215.962 100.659 210.501 97.672C205.125 94.6 200.901 90.2907 197.829 84.744C194.842 79.1973 193.349 72.7973 193.349 65.544C193.349 58.2053 194.842 51.7627 197.829 46.216C200.816 40.6693 204.997 36.4027 210.373 33.416C215.749 30.4293 221.936 28.936 228.933 28.936C235.674 28.936 241.69 30.3867 246.981 33.288C252.357 36.1893 256.496 40.328 259.397 45.704C262.384 50.9947 263.877 57.096 263.877 64.008ZM245.317 58.888C245.232 54.28 243.568 50.6107 240.325 47.88C237.082 45.064 233.114 43.656 228.421 43.656C223.984 43.656 220.229 45.0213 217.157 47.752C214.17 50.3973 212.336 54.1093 211.653 58.888H245.317ZM272.349 65.544C272.349 58.2053 273.842 51.8053 276.829 46.344C279.816 40.7973 283.954 36.5307 289.245 33.544C294.536 30.472 300.594 28.936 307.421 28.936C316.21 28.936 323.464 31.1547 329.181 35.592C334.984 39.944 338.866 46.088 340.829 54.024H321.501C320.477 50.952 318.728 48.5627 316.253 46.856C313.864 45.064 310.877 44.168 307.293 44.168C302.173 44.168 298.12 46.0453 295.133 49.8C292.146 53.4693 290.653 58.7173 290.653 65.544C290.653 72.2853 292.146 77.5333 295.133 81.288C298.12 84.9573 302.173 86.792 307.293 86.792C314.546 86.792 319.282 83.5493 321.501 77.064H340.829C338.866 84.744 334.984 90.8453 329.181 95.368C323.378 99.8907 316.125 102.152 307.421 102.152C300.594 102.152 294.536 100.659 289.245 97.672C283.954 94.6 279.816 90.3333 276.829 84.872C273.842 79.3253 272.349 72.8827 272.349 65.544ZM371.877 41.096C374.181 37.3413 377.168 34.3973 380.837 32.264C384.592 30.1307 388.858 29.064 393.637 29.064V47.88H388.901C383.269 47.88 379.002 49.2027 376.101 51.848C373.285 54.4933 371.877 59.1013 371.877 65.672V101H353.957V30.088H371.877V41.096ZM401.099 65.288C401.099 58.12 402.507 51.7627 405.323 46.216C408.224 40.6693 412.107 36.4027 416.971 33.416C421.92 30.4293 427.424 28.936 433.483 28.936C438.774 28.936 443.382 30.0027 447.307 32.136C451.318 34.2693 454.518 36.9573 456.907 40.2V30.088H474.955V101H456.907V90.632C454.603 93.96 451.403 96.7333 447.307 98.952C443.296 101.085 438.646 102.152 433.355 102.152C427.382 102.152 421.92 100.616 416.971 97.544C412.107 94.472 408.224 90.1627 405.323 84.616C402.507 78.984 401.099 72.5413 401.099 65.288ZM456.907 65.544C456.907 61.192 456.054 57.48 454.347 54.408C452.64 51.2507 450.336 48.8613 447.435 47.24C444.534 45.5333 441.419 44.68 438.091 44.68C434.763 44.68 431.691 45.4907 428.875 47.112C426.059 48.7333 423.755 51.1227 421.963 54.28C420.256 57.352 419.403 61.0213 419.403 65.288C419.403 69.5547 420.256 73.3093 421.963 76.552C423.755 79.7093 426.059 82.1413 428.875 83.848C431.776 85.5547 434.848 86.408 438.091 86.408C441.419 86.408 444.534 85.5973 447.435 83.976C450.336 82.2693 452.64 79.88 454.347 76.808C456.054 73.6507 456.907 69.896 456.907 65.544ZM524.969 44.808H512.553V101H494.377V44.808H486.313V30.088H494.377V26.504C494.377 17.8 496.852 11.4 501.801 7.30399C506.75 3.208 514.217 1.288 524.201 1.544V16.648C519.849 16.5627 516.82 17.288 515.113 18.824C513.406 20.36 512.553 23.1333 512.553 27.144V30.088H524.969V44.808ZM557.446 44.808V79.112C557.446 81.5013 558.001 83.2507 559.11 84.36C560.305 85.384 562.267 85.896 564.998 85.896H573.318V101H562.054C546.95 101 539.398 93.6613 539.398 78.984V44.808H530.95V30.088H539.398V12.552H557.446V30.088H573.318V44.808H557.446Z" fill="white"/>
</svg>
